<?xml version="1.0" encoding="UTF-8"?>
<svg version="1.1" xmlns="http://www.w3.org/2000/svg" width="450" height="450">
<path d="M0 0 C23.77964112 20.93823365 35.34796752 47.55807706 37.91015625 78.84375 C38.61362374 98.1738132 33.08333161 116.9403404 24.6875 134.125 C25.16058594 134.67285156 25.63367188 135.22070312 26.12109375 135.78515625 C38.99661966 151.22072824 52.72989422 174.19693137 51.6875 195.125 C60.86591979 191.98550027 67.6341591 188.07205537 72.5625 179.49609375 C76.80373351 170.55710506 78.21507056 161.50156963 78.90234375 151.75390625 C79.89962375 147.14458723 81.40508457 145.447506 84.6875 142.125 C87.75179776 140.59285112 90.3040642 140.89561452 93.6875 141.125 C97.5129764 142.82521174 99.15706682 144.27182975 100.6875 148.125 C102.83271612 165.87178793 96.18008376 185.00646937 85.6875 199.125 C78.64271484 207.76860165 68.44555851 213.41957108 57.6875 216.125 C55.6884306 216.18600447 53.68605667 216.20096853 51.6875 216.125 C51.69652344 216.81980469 51.70554687 217.51460937 51.71484375 218.23046875 C50.88360401 246.74560606 33.376283 271.8545795 13.6875 291.125 C-4.08757599 307.125 -4.08757599 307.125 -9.3125 307.125 C-9.30361755 307.67543976 -9.29473511 308.22587952 -9.2855835 308.79299927 C-9.19690709 314.53572172 -9.13668197 320.27824883 -9.09277344 326.02148438 C-9.07269112 328.16316634 -9.04541963 330.3047937 -9.01074219 332.44628906 C-8.96207602 335.52943415 -8.9394971 338.61185262 -8.921875 341.6953125 C-8.90122986 342.64866486 -8.88058472 343.60201721 -8.85931396 344.58425903 C-8.85740667 350.26895824 -9.33883999 353.73284277 -13.3125 358.125 C-18.78824438 363.33564882 -24.80386648 362.70540194 -31.9375 362.65625 C-33.15775879 362.6600769 -34.37801758 362.66390381 -35.63525391 362.66784668 C-38.21062039 362.67056401 -40.78601456 362.66321555 -43.36132812 362.64648438 C-47.29880422 362.62507447 -51.23445553 362.64629456 -55.171875 362.671875 C-57.67708735 362.66923169 -60.18229857 362.66410667 -62.6875 362.65625 C-63.8626416 362.66434692 -65.0377832 362.67244385 -66.24853516 362.68078613 C-72.55780568 362.60855491 -76.54499725 362.42376509 -81.3125 358.125 C-84.35933912 354.65790721 -85.4446785 351.7047411 -85.41015625 347.11328125 C-85.40693359 346.35595703 -85.40371094 345.59863281 -85.40039062 344.81835938 C-85.39201172 344.03267578 -85.38363281 343.24699219 -85.375 342.4375 C-85.37048828 341.64021484 -85.36597656 340.84292969 -85.36132812 340.02148438 C-85.3495585 338.05595743 -85.33162348 336.09046915 -85.3125 334.125 C-86.06273437 334.25777344 -86.81296875 334.39054687 -87.5859375 334.52734375 C-88.60945312 334.70394531 -89.63296875 334.88054687 -90.6875 335.0625 C-91.68523437 335.23652344 -92.68296875 335.41054688 -93.7109375 335.58984375 C-118.64698947 339.29509225 -143.74954606 337.25078117 -168.3125 332.125 C-168.27769531 333.42695313 -168.24289063 334.72890625 -168.20703125 336.0703125 C-168.17888099 337.79686204 -168.15158216 339.52342561 -168.125 341.25 C-168.09986328 342.1059375 -168.07472656 342.961875 -168.04882812 343.84375 C-167.98875135 349.05040427 -168.37984527 352.62872604 -171.3125 357.125 C-175.4990928 360.90314472 -177.90239017 362.24432493 -183.47729492 362.30200195 C-184.55569138 362.31483719 -185.63408783 362.32767242 -186.74516296 362.34089661 C-188.50132683 362.35197701 -188.50132683 362.35197701 -190.29296875 362.36328125 C-191.49431961 362.371353 -192.69567047 362.37942474 -193.9334259 362.38774109 C-196.48140007 362.4015931 -199.02939287 362.41231023 -201.57739258 362.42016602 C-205.46666913 362.43735271 -209.35509014 362.48122771 -213.24414062 362.52539062 C-215.71874374 362.53551959 -218.1933541 362.54403505 -220.66796875 362.55078125 C-221.8286235 362.56828934 -222.98927826 362.58579742 -224.18510437 362.60383606 C-230.74607078 362.58629329 -235.18446658 362.41041669 -240.3125 358.125 C-244.94464474 352.23935276 -244.77237238 346.06026066 -244.53515625 338.87109375 C-244.51554946 336.69598088 -244.49803438 334.52084833 -244.48242188 332.34570312 C-244.43691372 328.94538304 -244.37457225 325.54787581 -244.27514648 322.14868164 C-243.29304753 309.5210679 -243.29304753 309.5210679 -247.56005859 298.26806641 C-250.41270579 296.4974747 -253.18245124 295.32038885 -256.3125 294.125 C-259.00755958 292.1628535 -261.39652607 289.91876513 -263.8125 287.625 C-264.75561035 286.73748047 -264.75561035 286.73748047 -265.71777344 285.83203125 C-273.61222547 278.18215086 -280.79776164 269.20987011 -285.3125 259.125 C-285.3125 258.465 -285.3125 257.805 -285.3125 257.125 C-285.901521 257.14071045 -286.49054199 257.1564209 -287.09741211 257.17260742 C-289.81484027 257.235692 -292.53211361 257.27421991 -295.25 257.3125 C-296.63928711 257.35020508 -296.63928711 257.35020508 -298.05664062 257.38867188 C-307.4907909 257.48797872 -314.62582562 255.62796042 -321.5859375 249.09765625 C-326.06523617 243.9799055 -328.42189548 237.90427431 -328.47363281 231.13793945 C-328.48324036 230.12290848 -328.4928479 229.1078775 -328.50274658 228.06208801 C-328.50699646 226.96523178 -328.51124634 225.86837555 -328.515625 224.73828125 C-328.52132507 223.60730515 -328.52702515 222.47632904 -328.53289795 221.31108093 C-328.54235103 218.91450944 -328.54888315 216.51792493 -328.55273438 214.12133789 C-328.56241562 210.46933004 -328.59342688 206.81789078 -328.625 203.16601562 C-328.63153263 200.83594084 -328.63678208 198.50586203 -328.640625 196.17578125 C-328.6529718 195.08904617 -328.6653186 194.0023111 -328.67803955 192.88264465 C-328.65073018 183.50265633 -326.76606322 176.87987538 -320.28125 169.88671875 C-315.9267077 165.99009458 -310.11745471 163.03890722 -304.1652832 163.17358398 C-303.40562256 163.23876221 -302.64596191 163.30394043 -301.86328125 163.37109375 C-292.70035118 164.12835351 -292.70035118 164.12835351 -284.62841797 160.67285156 C-281.79063203 156.84742997 -280.05743661 152.52024436 -278.25244141 148.13964844 C-276.44011577 144.25515203 -273.55832386 141.2279701 -270.74609375 138.04296875 C-269.01315293 136.12360021 -269.01315293 136.12360021 -269.3125 133.125 C-270.36636883 131.51233096 -270.36636883 131.51233096 -271.9375 129.875 C-272.57042969 129.17761719 -273.20335937 128.48023438 -273.85546875 127.76171875 C-275.07169922 126.45654297 -275.07169922 126.45654297 -276.3125 125.125 C-276.83279785 124.56635254 -277.3530957 124.00770508 -277.88916016 123.43212891 C-279.67479402 121.51602392 -281.46235731 119.60173083 -283.25 117.6875 C-283.85948486 117.03370361 -284.46896973 116.37990723 -285.09692383 115.70629883 C-287.70341422 112.91140432 -290.31373907 110.12370976 -292.9609375 107.3671875 C-295.8480129 104.29250432 -298.01123018 101.85665528 -299.625 97.9375 C-299.1670722 93.81614981 -297.35067731 91.72822458 -294.3125 89.125 C-277.23521661 76.48895642 -256.48391549 69.68524407 -235.20605469 72.39306641 C-224.0233382 74.21392789 -211.85778304 78.14774941 -203.33203125 85.93359375 C-200.13276818 87.82097332 -197.86624673 86.91756222 -194.3125 86.125 C-191.35212698 85.34015059 -188.42541206 84.46828674 -185.5 83.5625 C-177.55630165 81.125 -177.55630165 81.125 -175.3125 81.125 C-175.34730469 80.43277344 -175.38210937 79.74054688 -175.41796875 79.02734375 C-176.13918255 52.96061645 -164.72204065 27.7615939 -147.30859375 8.80859375 C-108.94619917 -31.66683477 -43.08420075 -36.79513258 0 0 Z " fill="#003366" transform="translate(375.3125,74.875)"/>
<path d="M0 0 C1.59412079 1.17297895 3.17598518 2.36267582 4.75 3.5625 C6.18164494 4.63758051 7.61397864 5.71174423 9.046875 6.78515625 C10.28125 7.7109375 11.515625 8.63671875 12.75 9.5625 C13.33378418 9.30033691 13.91756836 9.03817383 14.51904297 8.76806641 C17.21644123 7.56395634 19.92055967 6.37570424 22.625 5.1875 C23.5428125 4.775 24.460625 4.3625 25.40625 3.9375 C31.45346029 1.29716875 37.2251452 -0.43899681 43.75 -1.4375 C43.95044922 -0.789021 44.15089844 -0.14054199 44.35742188 0.52758789 C49.85182472 18.1180868 55.42317624 33.56543867 67.75 47.5625 C68.76320312 48.79033203 68.76320312 48.79033203 69.796875 50.04296875 C83.29698694 65.93269905 101.7918515 76.11340025 121.75 81.5625 C122.38107666 81.74651367 123.01215332 81.93052734 123.66235352 82.12011719 C130.91399663 84.01957874 138.23437673 83.9586007 145.6875 83.9375 C146.37430847 83.93728851 147.06111694 83.93707703 147.76873779 83.93685913 C176.96282704 83.84717111 203.28178908 73.12064889 224.0625 52.4375 C225.29976459 51.15358809 226.53238655 49.86506323 227.75 48.5625 C242.62234928 62.5827876 248.48602621 82.72241835 249.20581055 102.6171875 C249.564192 125.49024033 241.12703725 145.04132563 226.75 162.5625 C226.21503906 163.23796875 225.68007813 163.9134375 225.12890625 164.609375 C216.05213939 175.72779945 202.60537614 186.14784984 189.75 192.5625 C189.09 192.5625 188.43 192.5625 187.75 192.5625 C187.75222061 193.13657089 187.75444122 193.71064178 187.75672913 194.30210876 C187.77878257 200.2550291 187.79390684 206.2079379 187.80493164 212.16088867 C187.80997317 214.38517732 187.81680623 216.60946263 187.82543945 218.83374023 C187.83751298 222.02328309 187.84322996 225.21278229 187.84765625 228.40234375 C187.85281754 229.40337631 187.85797882 230.40440887 187.86329651 231.43577576 C187.86340981 232.81709435 187.86340981 232.81709435 187.86352539 234.22631836 C187.865746 235.04128281 187.86796661 235.85624725 187.87025452 236.69590759 C187.75 238.5625 187.75 238.5625 186.75 239.5625 C184.22905924 239.65097743 181.73569107 239.67777301 179.21484375 239.66015625 C178.08496788 239.65803383 178.08496788 239.65803383 176.93226624 239.65586853 C174.5173044 239.65025376 172.10243399 239.63769883 169.6875 239.625 C168.05403779 239.6199869 166.42057414 239.61542366 164.78710938 239.61132812 C160.77470415 239.60027954 156.76236759 239.58300506 152.75 239.5625 C151.27094762 236.60439524 151.62809097 233.6077845 151.65234375 230.3671875 C151.65446617 229.30602219 151.65446617 229.30602219 151.65663147 228.22341919 C151.662234 225.96140331 151.67478682 223.69948602 151.6875 221.4375 C151.69251468 219.90494935 151.69707764 218.37239714 151.70117188 216.83984375 C151.71220423 213.08069112 151.72947048 209.32161228 151.75 205.5625 C150.67105469 205.88863281 149.59210938 206.21476563 148.48046875 206.55078125 C137.32240497 209.83581986 126.27228306 212.0271522 114.75 213.5625 C113.85410156 213.69527344 112.95820313 213.82804688 112.03515625 213.96484375 C84.04678295 217.55561923 56.15999222 211.36583074 29.75 202.5625 C29.42 214.4425 29.09 226.3225 28.75 238.5625 C25.80279391 240.03610305 22.81964632 239.70483596 19.58984375 239.6953125 C18.88477188 239.69626923 18.17970001 239.69722595 17.45326233 239.69821167 C15.96289989 239.69889229 14.47253448 239.69704621 12.98217773 239.69287109 C10.69312942 239.68751318 8.40427663 239.69282409 6.11523438 239.69921875 C4.6692704 239.6985581 3.22330654 239.69727722 1.77734375 239.6953125 C0.74455544 239.69834885 0.74455544 239.69834885 -0.30909729 239.70144653 C-5.13504236 239.67745764 -5.13504236 239.67745764 -6.25 238.5625 C-6.37281952 236.93670782 -6.42782504 235.30572996 -6.45532227 233.67553711 C-6.47526749 232.63453354 -6.49521271 231.59352997 -6.51576233 230.52098083 C-6.53247482 229.3887056 -6.54918732 228.25643036 -6.56640625 227.08984375 C-6.58718735 225.93706436 -6.60796844 224.78428497 -6.62937927 223.59657288 C-6.69499964 219.89777843 -6.75381755 216.19891041 -6.8125 212.5 C-6.85567335 209.99934121 -6.89928724 207.49868999 -6.94335938 204.99804688 C-7.05069368 198.85294338 -7.15243643 192.70776596 -7.25 186.5625 C-8.74805176 185.79413818 -8.74805176 185.79413818 -10.27636719 185.01025391 C-24.06049027 177.85879388 -24.06049027 177.85879388 -29.5 172.9375 C-30.06662354 172.43516846 -30.63324707 171.93283691 -31.21704102 171.4152832 C-41.65603672 161.86976125 -49.31995115 150.83829707 -54.25 137.5625 C-54.25 136.5725 -54.25 135.5825 -54.25 134.5625 C-55.12736816 134.58868408 -56.00473633 134.61486816 -56.90869141 134.6418457 C-60.18522757 134.72740909 -63.46056558 134.78990867 -66.73779297 134.8371582 C-68.15204682 134.86219925 -69.56617257 134.89624342 -70.97998047 134.93969727 C-84.25403352 135.33726404 -84.25403352 135.33726404 -88.1484375 132.16796875 C-92.98625262 126.17015706 -91.55245716 118.06010768 -91.60009766 110.65136719 C-91.6166375 108.76582479 -91.64390159 106.88034459 -91.68212891 104.99511719 C-91.73704051 102.27245657 -91.75879426 99.55126563 -91.7734375 96.828125 C-91.79610687 95.99041565 -91.81877625 95.1527063 -91.84213257 94.28961182 C-91.82772236 90.2754276 -91.55632697 87.35079538 -89.17163086 84.03369141 C-85.53975747 80.96175838 -83.69413875 80.79660814 -78.98046875 80.7578125 C-78.29946609 80.74410614 -77.61846344 80.73039978 -76.91682434 80.71627808 C-74.75637055 80.67909117 -72.59822737 80.68268394 -70.4375 80.6875 C-68.96676113 80.66936472 -67.49605261 80.64855939 -66.02539062 80.625 C-62.43342641 80.57326054 -58.84238423 80.55806144 -55.25 80.5625 C-54.88229492 79.55509766 -54.51458984 78.54769531 -54.13574219 77.50976562 C-48.51455604 62.33463727 -39.88944962 50.61397534 -29.25 38.5625 C-28.01833671 37.12713855 -26.78861353 35.69010505 -25.5625 34.25 C-24.799375 33.363125 -24.03625 32.47625 -23.25 31.5625 C-28.68297688 25.4847001 -34.17205965 19.46389206 -39.70898438 13.48095703 C-44.58905731 8.20465224 -49.42501236 2.88920095 -54.25 -2.4375 C-52.01637233 -4.92721237 -49.93553017 -6.23592208 -46.875 -7.5625 C-46.12476563 -7.89507812 -45.37453125 -8.22765625 -44.6015625 -8.5703125 C-29.67559836 -14.0745717 -12.54051513 -8.70708578 0 0 Z " fill="#56A3FE" transform="translate(158.25,177.4375)"/>
<path d="M0 0 C0.66386719 0.51304688 1.32773437 1.02609375 2.01171875 1.5546875 C16.69046116 13.23170955 27.01228395 33.45644561 29.76123047 51.79785156 C32.40735039 76.2027613 27.37422993 99.58985685 12.125 119.1875 C-0.76483699 134.61624427 -16.61162647 144.55044303 -36 150 C-36.74765625 150.22558594 -37.4953125 150.45117188 -38.265625 150.68359375 C-57.75770014 155.62476664 -79.51200907 151.21278776 -97 142 C-101.54723655 139.28240562 -105.78976404 136.20888254 -110 133 C-110.72703125 132.45859375 -111.4540625 131.9171875 -112.203125 131.359375 C-128.49226289 118.24860548 -139.31118375 96.53956859 -142 76 C-142.85062108 63.38220826 -141.82912707 52.03249998 -138 40 C-137.71125 39.02933594 -137.4225 38.05867188 -137.125 37.05859375 C-130.24684383 15.96353441 -114.6002233 -0.54389087 -95.48046875 -11.328125 C-91.3403074 -13.31688937 -87.15857737 -14.90030997 -82.8125 -16.375 C-81.70841797 -16.75132568 -81.70841797 -16.75132568 -80.58203125 -17.13525391 C-52.78494395 -26.03900843 -21.99034832 -18.3084006 0 0 Z " fill="#56A2FD" transform="translate(362,91)"/>
<path d="M0 0 C0.68513672 -0.00322266 1.37027344 -0.00644531 2.07617188 -0.00976562 C7.17022414 0.04522414 7.17022414 0.04522414 9.4375 2.3125 C9.6328125 5.5703125 9.6328125 5.5703125 9.5625 9.4375 C9.54445313 10.71882813 9.52640625 12.00015625 9.5078125 13.3203125 C9.48460937 14.30773437 9.46140625 15.29515625 9.4375 16.3125 C11.10425781 16.22548828 11.10425781 16.22548828 12.8046875 16.13671875 C24.59971002 15.7069406 32.32028167 17.306082 41.4375 25.3125 C43.421875 27.93359375 43.421875 27.93359375 45.1875 30.75 C46.07695312 32.14025391 46.07695312 32.14025391 46.984375 33.55859375 C50.18591091 39.62602067 50.17331013 46.60223156 49.4375 53.3125 C47.88345895 58.22396556 45.94668425 63.02892383 43.09765625 67.33984375 C42.15575197 69.42146827 42.15575197 69.42146827 43.51953125 71.78515625 C44.09058594 72.63980469 44.66164063 73.49445313 45.25 74.375 C50.00038783 81.60385104 50.07934999 87.75755653 49.4375 96.3125 C47.54055758 104.68875778 42.87284926 111.42889474 35.6796875 116.10546875 C28.97430165 119.86942534 24.39303671 121.45205537 16.6875 121.375 C15.51703125 121.36597656 14.3465625 121.35695313 13.140625 121.34765625 C11.80257812 121.33025391 11.80257812 121.33025391 10.4375 121.3125 C10.48970703 122.55966797 10.48970703 122.55966797 10.54296875 123.83203125 C10.57003906 124.91871094 10.59710938 126.00539063 10.625 127.125 C10.67720703 128.74341797 10.67720703 128.74341797 10.73046875 130.39453125 C10.4375 133.3125 10.4375 133.3125 9.4296875 135.17578125 C6.24144151 136.9949569 2.94225017 136.74427321 -0.625 136.6875 C-1.35783203 136.69910156 -2.09066406 136.71070313 -2.84570312 136.72265625 C-4.97265625 136.7109375 -4.97265625 136.7109375 -8.5625 136.3125 C-10.91369399 132.78570901 -10.77693452 131.28370515 -10.6875 127.125 C-10.66945313 126.03832031 -10.65140625 124.95164062 -10.6328125 123.83203125 C-10.60960937 123.00058594 -10.58640625 122.16914063 -10.5625 121.3125 C-12.22804932 121.32821045 -12.22804932 121.32821045 -13.92724609 121.34423828 C-18.03837879 121.38037949 -22.14949739 121.40337896 -26.26074219 121.42236328 C-28.04169067 121.43243431 -29.82262257 121.44609185 -31.60351562 121.46337891 C-34.16019783 121.48757913 -36.71666185 121.49897184 -39.2734375 121.5078125 C-40.07244476 121.51813507 -40.87145203 121.52845764 -41.69467163 121.53909302 C-43.6520722 121.53949226 -45.60893077 121.43491069 -47.5625 121.3125 C-50.12198999 118.75301001 -49.82318731 117.04042805 -49.8359375 113.546875 C-49.82820313 112.80953125 -49.82046875 112.0721875 -49.8125 111.3125 C-49.82023437 110.57515625 -49.82796875 109.8378125 -49.8359375 109.078125 C-49.8158196 103.5658196 -49.8158196 103.5658196 -47.5625 101.3125 C-43.2725 101.3125 -38.9825 101.3125 -34.5625 101.3125 C-34.5625 79.5325 -34.5625 57.7525 -34.5625 35.3125 C-39.1825 35.3125 -43.8025 35.3125 -48.5625 35.3125 C-50.67206132 33.20293868 -49.79362319 28.77966878 -49.8125 25.875 C-49.833125 25.08544922 -49.85375 24.29589844 -49.875 23.48242188 C-49.890625 21.19140625 -49.890625 21.19140625 -49.5625 17.3125 C-45.77407527 14.78688352 -42.77716671 15.05858427 -38.39453125 15.1171875 C-37.20231209 15.12143234 -37.20231209 15.12143234 -35.98600769 15.12576294 C-33.44885162 15.13695295 -30.91204928 15.16205509 -28.375 15.1875 C-26.65430198 15.19753134 -24.93359841 15.20665692 -23.21289062 15.21484375 C-18.99595757 15.23688839 -14.77928875 15.27140994 -10.5625 15.3125 C-10.61470703 14.06533203 -10.61470703 14.06533203 -10.66796875 12.79296875 C-10.69503906 11.70628906 -10.72210938 10.61960937 -10.75 9.5 C-10.78480469 8.42105469 -10.81960938 7.34210938 -10.85546875 6.23046875 C-10.5625 3.3125 -10.5625 3.3125 -9.26977539 1.44848633 C-6.42598039 -0.44371704 -3.29312062 -0.07788838 0 0 Z " fill="#013467" transform="translate(309.5625,85.6875)"/>
<path d="M0 0 C5.01801728 -0.09207371 10.03307904 -0.17163196 15.05126953 -0.21972656 C16.75644894 -0.23978369 18.46156006 -0.26703657 20.16650391 -0.30175781 C22.62419524 -0.35053861 25.08097366 -0.37302719 27.5390625 -0.390625 C28.29555084 -0.41127014 29.05203918 -0.43191528 29.83145142 -0.45318604 C35.00221854 -0.45535489 37.90110162 0.58489377 42 4 C44.68468038 8.02702057 44.68187737 11.2684363 44 16 C41.86472567 19.58421048 39.88453645 21.55587208 36 23 C33.20915781 23.16858166 30.52228007 23.23284241 27.734375 23.1953125 C26.94097717 23.1924826 26.14757935 23.18965271 25.33013916 23.18673706 C22.80327083 23.17556779 20.27676068 23.15046944 17.75 23.125 C16.0338593 23.11496598 14.31771302 23.10584087 12.6015625 23.09765625 C8.40079361 23.07734305 4.20079639 23.03818906 0 23 C0 15.41 0 7.82 0 0 Z " fill="#55A1FC" transform="translate(295,164)"/>
<path d="M0 0 C4.87521204 -0.06906124 9.74871108 -0.12873492 14.62402344 -0.16479492 C16.28065763 -0.17983465 17.93725231 -0.20027177 19.59375 -0.22631836 C21.9818703 -0.26291515 24.36946188 -0.27977439 26.7578125 -0.29296875 C27.85973434 -0.31619453 27.85973434 -0.31619453 28.98391724 -0.33988953 C34.61012534 -0.34171004 38.6113984 0.92987861 42.875 4.625 C44.65925736 8.39176554 44.76903725 11.92198594 44 16 C42.06658451 19.57052209 39.91644101 21.69451966 36 23 C33.2684044 23.08507079 30.56308557 23.11591565 27.83203125 23.09765625 C26.63981209 23.09553383 26.63981209 23.09553383 25.42350769 23.09336853 C22.88646675 23.08777378 20.34951425 23.07522228 17.8125 23.0625 C16.09179815 23.05748432 14.37109492 23.05292153 12.65039062 23.04882812 C8.43353231 23.03865722 4.21686509 23.01908084 0 23 C0 15.41 0 7.82 0 0 Z " fill="#55A1FB" transform="translate(295,121)"/>
<path d="M0 0 C4.81852225 2.36380337 7.67076821 5.16236475 10 10 C10.7971639 14.99447589 10.57907893 18.79729761 8.375 23.375 C4.50879423 27.6481748 1.35378517 30.20485117 -4.5 30.5 C-9.82348648 30.25802334 -12.86525298 27.84029916 -16.8125 24.4375 C-19.76124497 20.86796662 -19.44709061 16.19818238 -19.41796875 11.80078125 C-18.75419507 7.35287722 -16.47122656 4.73080438 -13 2 C-8.76274534 -0.54749926 -4.82994218 -0.67199196 0 0 Z " fill="#013468" transform="translate(160,232)"/>
</svg>
